<svg xmlns="http://www.w3.org/2000/svg" width="299.127" height="110.524" viewBox="0 0 127.625 47.156">
  <defs>
    <style>
      .cls-1 {
        fill: #c7ba93;
        fill-rule: evenodd;
      }
    </style>
  </defs>
  <path id="PONG_copy_2" data-name="PONG copy 2" class="cls-1" d="M292.019,323.1h1.14a13.783,13.783,0,0,1,4.14.359c1.8,0.84,1.98,3.48,1.98,5.22a6.817,6.817,0,0,1-1.32,4.56c-1.68,1.32-3.96,1.08-5.94,1.14V323.1Zm0,36.9V342.481c3.96-.18,8.22.36,11.88-1.44,4.8-2.22,5.94-7.68,5.94-12.54,0-3.66-.48-7.019-2.94-9.779-2.94-3.36-8.82-3.72-12.9-3.72H281.46v45h10.559Zm40.08-13.439c0,2.579-.24,6.419-3.66,6.419s-3.84-3.84-3.84-6.419v-18.48c0-2.76.42-6.059,3.78-6.059,3.48,0,3.72,3.3,3.72,6.059v18.48Zm10.56-19.2c0-8.639-4.98-13.439-14.22-13.439s-14.4,4.8-14.4,13.439v18.3c0,10.139,3.72,15.419,14.4,15.419s14.22-5.28,14.22-15.419v-18.3ZM364.979,360h10.8V315h-10.02l1.02,25.139H366.6L358.439,315H347.58v45H357.6l-0.959-25.079,0.12-.12Zm44.1,0.06V335.581h-14.34v8.1h3.78v3.54c0,2.879-.12,5.759-3.72,5.759-2.76,0-3.9-1.5-3.9-4.02V326.7c0-2.94.78-4.739,4.08-4.679,2.82,0.06,3.3,1.979,3.3,5.819v2.46h10.56v-3.36c0-9.179-5.34-13.019-14.34-13.019-9.659,0-14.159,4.56-14.159,14.339v18.48c0,8.159,2.88,14.339,11.819,14.339,4.56,0,6.96-1.2,9.12-5.04h0.12l0.48,4.02h7.2Z" transform="translate(-281.469 -313.938)"/>
</svg>
